<svg width="180" height="180" viewBox="0 0 180 180" fill="none" xmlns="http://www.w3.org/2000/svg">
  <!-- Background with gradient -->
  <rect width="180" height="180" fill="url(#gradient)" rx="20"/>
  
  <defs>
    <linearGradient id="gradient" x1="0%" y1="0%" x2="100%" y2="100%">
      <stop offset="0%" style="stop-color:#f97316;stop-opacity:1" />
      <stop offset="100%" style="stop-color:#dc2626;stop-opacity:1" />
    </linearGradient>
  </defs>
  
  <!-- Racing flag -->
  <rect x="35" y="45" width="85" height="55" fill="#1a1a1a" rx="6"/>
  
  <!-- Checkered pattern -->
  <rect x="40" y="50" width="12" height="12" fill="#ffffff"/>
  <rect x="52" y="50" width="12" height="12" fill="#1a1a1a"/>
  <rect x="64" y="50" width="12" height="12" fill="#ffffff"/>
  <rect x="76" y="50" width="12" height="12" fill="#1a1a1a"/>
  <rect x="88" y="50" width="12" height="12" fill="#ffffff"/>
  <rect x="100" y="50" width="12" height="12" fill="#1a1a1a"/>
  
  <rect x="40" y="62" width="12" height="12" fill="#1a1a1a"/>
  <rect x="52" y="62" width="12" height="12" fill="#ffffff"/>
  <rect x="64" y="62" width="12" height="12" fill="#1a1a1a"/>
  <rect x="76" y="62" width="12" height="12" fill="#ffffff"/>
  <rect x="88" y="62" width="12" height="12" fill="#1a1a1a"/>
  <rect x="100" y="62" width="12" height="12" fill="#ffffff"/>
  
  <rect x="40" y="74" width="12" height="12" fill="#ffffff"/>
  <rect x="52" y="74" width="12" height="12" fill="#1a1a1a"/>
  <rect x="64" y="74" width="12" height="12" fill="#ffffff"/>
  <rect x="76" y="74" width="12" height="12" fill="#1a1a1a"/>
  <rect x="88" y="74" width="12" height="12" fill="#ffffff"/>
  <rect x="100" y="74" width="12" height="12" fill="#1a1a1a"/>
  
  <rect x="40" y="86" width="12" height="12" fill="#1a1a1a"/>
  <rect x="52" y="86" width="12" height="12" fill="#ffffff"/>
  <rect x="64" y="86" width="12" height="12" fill="#1a1a1a"/>
  <rect x="76" y="86" width="12" height="12" fill="#ffffff"/>
  <rect x="88" y="86" width="12" height="12" fill="#1a1a1a"/>
  <rect x="100" y="86" width="12" height="12" fill="#ffffff"/>
  
  <!-- Flag pole -->
  <rect x="27" y="38" width="6" height="70" fill="#666666"/>
  
  <!-- Racing text -->
  <text x="90" y="125" text-anchor="middle" fill="#ffffff" font-family="Arial, sans-serif" font-size="18" font-weight="bold">ACE</text>
  <text x="90" y="145" text-anchor="middle" fill="#ffffff" font-family="Arial, sans-serif" font-size="12">OF PACE</text>
</svg>