<svg width="32" height="32" viewBox="0 0 32 32" fill="none" xmlns="http://www.w3.org/2000/svg">
  <!-- Dark background -->
  <rect width="32" height="32" fill="#1a1a1a" rx="4"/>
  
  <!-- Checkered flag pattern -->
  <rect x="6" y="8" width="3" height="3" fill="#f97316"/>
  <rect x="9" y="8" width="3" height="3" fill="#ffffff"/>
  <rect x="12" y="8" width="3" height="3" fill="#f97316"/>
  <rect x="15" y="8" width="3" height="3" fill="#ffffff"/>
  <rect x="18" y="8" width="3" height="3" fill="#f97316"/>
  
  <rect x="6" y="11" width="3" height="3" fill="#ffffff"/>
  <rect x="9" y="11" width="3" height="3" fill="#f97316"/>
  <rect x="12" y="11" width="3" height="3" fill="#ffffff"/>
  <rect x="15" y="11" width="3" height="3" fill="#f97316"/>
  <rect x="18" y="11" width="3" height="3" fill="#ffffff"/>
  
  <rect x="6" y="14" width="3" height="3" fill="#f97316"/>
  <rect x="9" y="14" width="3" height="3" fill="#ffffff"/>
  <rect x="12" y="14" width="3" height="3" fill="#f97316"/>
  <rect x="15" y="14" width="3" height="3" fill="#ffffff"/>
  <rect x="18" y="14" width="3" height="3" fill="#f97316"/>
  
  <rect x="6" y="17" width="3" height="3" fill="#ffffff"/>
  <rect x="9" y="17" width="3" height="3" fill="#f97316"/>
  <rect x="12" y="17" width="3" height="3" fill="#ffffff"/>
  <rect x="15" y="17" width="3" height="3" fill="#f97316"/>
  <rect x="18" y="17" width="3" height="3" fill="#ffffff"/>
  
  <!-- Flag pole -->
  <rect x="4" y="6" width="2" height="16" fill="#666666"/>
  
  <!-- Racing accent -->
  <rect x="22" y="20" width="6" height="2" fill="#dc2626" rx="1"/>
  <rect x="24" y="22" width="4" height="2" fill="#f97316" rx="1"/>
</svg>