<svg width="32" height="32" viewBox="0 0 32 32" fill="none" xmlns="http://www.w3.org/2000/svg">
  <rect width="32" height="32" fill="#1a1a1a"/>
  
  <!-- Checkered pattern background -->
  <defs>
    <pattern id="checkered" patternUnits="userSpaceOnUse" width="8" height="8">
      <rect width="4" height="4" fill="#f97316"/>
      <rect x="4" y="4" width="4" height="4" fill="#f97316"/>
      <rect x="4" y="0" width="4" height="4" fill="#ffffff"/>
      <rect x="0" y="4" width="4" height="4" fill="#ffffff"/>
    </pattern>
  </defs>
  
  <!-- Racing flag base -->
  <rect x="4" y="6" width="20" height="14" fill="url(#checkered)" rx="2"/>
  
  <!-- Flag pole -->
  <rect x="2" y="4" width="2" height="20" fill="#666666"/>
  
  <!-- Racing car silhouette -->
  <path d="M8 22 L10 22 L11 20 L13 20 L14 22 L16 22 L17 20 L19 20 L20 22 L22 22 L21 24 L19 24 L18 22 L16 22 L15 24 L13 24 L12 22 L10 22 L9 24 L7 24 Z" fill="#dc2626"/>
  
  <!-- Wheels -->
  <circle cx="10" cy="23" r="1.5" fill="#1a1a1a"/>
  <circle cx="18" cy="23" r="1.5" fill="#1a1a1a"/>
  <circle cx="10" cy="23" r="0.7" fill="#666666"/>
  <circle cx="18" cy="23" r="0.7" fill="#666666"/>
</svg>